<svg xmlns="http://www.w3.org/2000/svg" viewBox="0 0 120 180"><defs><style>.cls-1{fill:#fff;}.cls-2{fill:#bf0000;stroke:#bf0000;}.cls-2,.cls-3{stroke-miterlimit:10;}.cls-3{fill:none;stroke:#fff;}</style></defs><title>Asset 1</title><g id="Layer_2" data-name="Layer 2"><g id="Suits"><rect class="cls-1" width="120" height="180" rx="10"/><rect class="cls-2" x="5" y="4.88" width="110" height="170.25" rx="7"/><line class="cls-3" x1="111.5" y1="38.5" x2="8.5" y2="141.5"/><line class="cls-3" x1="111.16" y1="34.6" x2="8.16" y2="137.6"/><line class="cls-3" x1="111.16" y1="30.6" x2="8.16" y2="133.6"/><line class="cls-3" x1="111.5" y1="26.5" x2="8.5" y2="129.5"/><line class="cls-3" x1="111.16" y1="22.6" x2="8.16" y2="125.6"/><line class="cls-3" x1="111.16" y1="18.6" x2="8.16" y2="121.6"/><line class="cls-3" x1="111.5" y1="14.5" x2="8.5" y2="117.5"/><line class="cls-3" x1="111.16" y1="10.6" x2="8.16" y2="113.6"/><line class="cls-3" x1="110.5" y1="7.5" x2="8.16" y2="109.6"/><line class="cls-3" x1="111.5" y1="70.5" x2="9.5" y2="172.5"/><line class="cls-3" x1="111.16" y1="66.6" x2="8.16" y2="169.6"/><line class="cls-3" x1="111.16" y1="62.6" x2="8.16" y2="165.6"/><line class="cls-3" x1="111.5" y1="58.5" x2="8.5" y2="161.5"/><line class="cls-3" x1="111.16" y1="54.6" x2="8.16" y2="157.6"/><line class="cls-3" x1="111.16" y1="50.6" x2="8.16" y2="153.6"/><line class="cls-3" x1="111.5" y1="46.5" x2="8.5" y2="149.5"/><line class="cls-3" x1="111.16" y1="42.6" x2="8.16" y2="145.6"/><line class="cls-3" x1="8.16" y1="38.5" x2="111.16" y2="141.5"/><line class="cls-3" x1="8.5" y1="34.6" x2="111.5" y2="137.6"/><line class="cls-3" x1="8.5" y1="30.6" x2="111.5" y2="133.6"/><line class="cls-3" x1="8.16" y1="26.5" x2="111.16" y2="129.5"/><line class="cls-3" x1="8.5" y1="22.6" x2="111.5" y2="125.6"/><line class="cls-3" x1="8.5" y1="18.6" x2="111.5" y2="121.6"/><line class="cls-3" x1="8.16" y1="14.5" x2="111.16" y2="117.5"/><line class="cls-3" x1="8.5" y1="10.6" x2="111.5" y2="113.6"/><line class="cls-3" x1="9.16" y1="7.5" x2="111.5" y2="109.6"/><line class="cls-3" x1="8.16" y1="70.5" x2="110.16" y2="172.5"/><line class="cls-3" x1="8.5" y1="66.6" x2="111.5" y2="169.6"/><line class="cls-3" x1="8.5" y1="62.6" x2="111.5" y2="165.6"/><line class="cls-3" x1="8.16" y1="58.5" x2="111.16" y2="161.5"/><line class="cls-3" x1="8.5" y1="54.6" x2="111.5" y2="157.6"/><line class="cls-3" x1="8.5" y1="50.6" x2="111.5" y2="153.6"/><line class="cls-3" x1="8.16" y1="46.5" x2="111.16" y2="149.5"/><line class="cls-3" x1="8.5" y1="42.6" x2="111.5" y2="145.6"/></g></g></svg>