<svg id="Suits" xmlns="http://www.w3.org/2000/svg" viewBox="0 0 1024 1024"><title>Suits_Vectors</title><path id="Club" d="M783.06,426.67a240.53,240.53,0,0,0-82.64,14.55,239.87,239.87,0,0,0,52.52-150.08C752.94,158.07,645.07,50.2,512,50.2S271.06,158.07,271.06,291.14a239.87,239.87,0,0,0,52.52,150.08,240.53,240.53,0,0,0-82.64-14.55C107.87,426.67,0,534.54,0,667.61S107.87,908.55,240.94,908.55c122.83,0,224.12-91.94,239-210.74-1.62,40.33-3.7,97.64-3.07,110.35,5,100.39-110.43,215.84-130.51,215.84H677.41c-20.08,0-135.53-115.45-130.51-215.84.65-13-1.55-72.68-3.18-113.1,13.63,120.13,115.56,213.49,239.34,213.49,133.07,0,240.94-107.87,240.94-240.94S916.13,426.67,783.06,426.67Z"/></svg>